{
  "accessors": [
    {
      "bufferView": 1,
      "componentType": 5126,
      "count": 65532,
      "max": [
        1.2864645719528198,
        1.7905824184417725,
        1.2855627536773682
      ],
      "min": [
        -1.2864274978637695,
        -3.704482316970825,
        -1.2940047979354858
      ],
      "type": "VEC3"
    },
    {
      "bufferView": 1,
      "byteOffset": 786384,
      "componentType": 5126,
      "count": 65532,
      "max": [
        0.9999774694442749,
        0.9999769330024719,
        0.999955415725708
      ],
      "min": [
        -0.9999608397483826,
        -0.9999402761459351,
        -0.9999798536300659
      ],
      "type": "VEC3"
    },
    {
      "bufferView": 2,
      "componentType": 5126,
      "count": 65532,
      "max": [
        1.0,
        1.0,
        1.0,
        1.0
      ],
      "min": [
        0.0,
        0.0,
        0.0,
        1.0
      ],
      "type": "VEC4"
    },
    {
      "bufferView": 0,
      "componentType": 5125,
      "count": 309954,
      "type": "SCALAR"
    },
    {
      "bufferView": 1,
      "byteOffset": 1572768,
      "componentType": 5126,
      "count": 65532,
      "max": [
        1.2864645719528198,
        1.7905824184417725,
        1.2855181694030762
      ],
      "min": [
        -1.2764265537261963,
        -3.881587266921997,
        -1.2884068489074707
      ],
      "type": "VEC3"
    },
    {
      "bufferView": 1,
      "byteOffset": 2359152,
      "componentType": 5126,
      "count": 65532,
      "max": [
        0.9999921917915344,
        0.9999999403953552,
        0.9999873638153076
      ],
      "min": [
        -0.9999980926513672,
        -0.9999999403953552,
        -0.9998192191123962
      ],
      "type": "VEC3"
    },
    {
      "bufferView": 2,
      "byteOffset": 1048512,
      "componentType": 5126,
      "count": 65532,
      "max": [
        1.0,
        1.0,
        1.0,
        1.0
      ],
      "min": [
        0.0,
        0.0,
        0.0,
        1.0
      ],
      "type": "VEC4"
    },
    {
      "bufferView": 0,
      "byteOffset": 1239816,
      "componentType": 5125,
      "count": 268098,
      "type": "SCALAR"
    },
    {
      "bufferView": 1,
      "byteOffset": 3145536,
      "componentType": 5126,
      "count": 65532,
      "max": [
        1.2860791683197021,
        1.7825984954833984,
        1.283782958984375
      ],
      "min": [
        -1.2615139484405518,
        -3.881587266921997,
        -1.293285608291626
      ],
      "type": "VEC3"
    },
    {
      "bufferView": 1,
      "byteOffset": 3931920,
      "componentType": 5126,
      "count": 65532,
      "max": [
        0.9999921917915344,
        0.9999992251396179,
        0.9999222159385681
      ],
      "min": [
        -0.9999608397483826,
        -1.0,
        -0.9998636245727539
      ],
      "type": "VEC3"
    },
    {
      "bufferView": 2,
      "byteOffset": 2097024,
      "componentType": 5126,
      "count": 65532,
      "max": [
        1.0,
        1.0,
        1.0,
        1.0
      ],
      "min": [
        0.0,
        0.0,
        0.0,
        1.0
      ],
      "type": "VEC4"
    },
    {
      "bufferView": 0,
      "byteOffset": 2312208,
      "componentType": 5125,
      "count": 177207,
      "type": "SCALAR"
    },
    {
      "bufferView": 1,
      "byteOffset": 4718304,
      "componentType": 5126,
      "count": 7533,
      "max": [
        1.2198659181594849,
        1.7264124155044556,
        1.268656611442566
      ],
      "min": [
        -1.0549780130386353,
        -3.815457344055176,
        -1.2759625911712646
      ],
      "type": "VEC3"
    },
    {
      "bufferView": 1,
      "byteOffset": 4808700,
      "componentType": 5126,
      "count": 7533,
      "max": [
        0.9999296069145203,
        0.9999992251396179,
        0.99974125623703
      ],
      "min": [
        -0.9982251524925232,
        -0.9999946355819702,
        -0.9995779991149902
      ],
      "type": "VEC3"
    },
    {
      "bufferView": 2,
      "byteOffset": 3145536,
      "componentType": 5126,
      "count": 7533,
      "max": [
        1.0,
        1.0,
        1.0,
        1.0
      ],
      "min": [
        0.0,
        0.0,
        0.0,
        1.0
      ],
      "type": "VEC4"
    },
    {
      "bufferView": 0,
      "byteOffset": 3021036,
      "componentType": 5125,
      "count": 11052,
      "type": "SCALAR"
    }
  ],
  "asset": {
    "extras": {
      "author": "abauerenator (https://sketchfab.com/abauerenator)",
      "license": "CC-BY-4.0 (http://creativecommons.org/licenses/by/4.0/)",
      "source": "https://sketchfab.com/3d-models/kozume-kenma-color-063c1c35cc874f888d4db5bf945a39f8",
      "title": "Kozume_kenma_color"
    },
    "generator": "Sketchfab-16.56.0",
    "version": "2.0"
  },
  "bufferViews": [
    {
      "buffer": 0,
      "byteLength": 3065244,
      "name": "floatBufferViews",
      "target": 34963
    },
    {
      "buffer": 0,
      "byteLength": 4899096,
      "byteOffset": 3065244,
      "byteStride": 12,
      "name": "floatBufferViews",
      "target": 34962
    },
    {
      "buffer": 0,
      "byteLength": 3266064,
      "byteOffset": 7964340,
      "byteStride": 16,
      "name": "floatBufferViews",
      "target": 34962
    }
  ],
  "buffers": [
    {
      "byteLength": 11230404,
      "uri": "scene.bin"
    }
  ],
  "materials": [
    {
      "doubleSided": true,
      "name": "UMesh_PM3D_Cylinder3D1",
      "pbrMetallicRoughness": {
        "baseColorFactor": [
          0.5,
          0.5,
          0.5,
          1.0
        ],
        "metallicFactor": 0.0
      }
    }
  ],
  "meshes": [
    {
      "name": "UMesh_PM3D_Cylinder3D1_UMesh_PM3D_Cylinder3D1_0",
      "primitives": [
        {
          "attributes": {
            "COLOR_0": 2,
            "NORMAL": 1,
            "POSITION": 0
          },
          "indices": 3,
          "material": 0,
          "mode": 4
        }
      ]
    },
    {
      "name": "UMesh_PM3D_Cylinder3D1_UMesh_PM3D_Cylinder3D1_0",
      "primitives": [
        {
          "attributes": {
            "COLOR_0": 6,
            "NORMAL": 5,
            "POSITION": 4
          },
          "indices": 7,
          "material": 0,
          "mode": 4
        }
      ]
    },
    {
      "name": "UMesh_PM3D_Cylinder3D1_UMesh_PM3D_Cylinder3D1_0",
      "primitives": [
        {
          "attributes": {
            "COLOR_0": 10,
            "NORMAL": 9,
            "POSITION": 8
          },
          "indices": 11,
          "material": 0,
          "mode": 4
        }
      ]
    },
    {
      "name": "UMesh_PM3D_Cylinder3D1_UMesh_PM3D_Cylinder3D1_0",
      "primitives": [
        {
          "attributes": {
            "COLOR_0": 14,
            "NORMAL": 13,
            "POSITION": 12
          },
          "indices": 15,
          "material": 0,
          "mode": 4
        }
      ]
    }
  ],
  "nodes": [
    {
      "children": [
        1
      ],
      "matrix": [
        1.0,
        0.0,
        0.0,
        0.0,
        0.0,
        2.220446049250313e-16,
        -1.0,
        0.0,
        0.0,
        1.0,
        2.220446049250313e-16,
        0.0,
        0.0,
        0.0,
        0.0,
        1.0
      ],
      "name": "Sketchfab_model"
    },
    {
      "children": [
        2
      ],
      "matrix": [
        0.009999999776482582,
        0.0,
        0.0,
        0.0,
        0.0,
        0.0,
        0.009999999776482582,
        0.0,
        0.0,
        -0.009999999776482582,
        0.0,
        0.0,
        0.0,
        0.0,
        0.0,
        1.0
      ],
      "name": "4517d132af574d71813079530081f9c7.fbx"
    },
    {
      "children": [
        3
      ],
      "name": "RootNode"
    },
    {
      "children": [
        4,
        5,
        6,
        7
      ],
      "name": "UMesh_PM3D_Cylinder3D1"
    },
    {
      "mesh": 0,
      "name": "UMesh_PM3D_Cylinder3D1_UMesh_PM3D_Cylinder3D1_0"
    },
    {
      "mesh": 1,
      "name": "UMesh_PM3D_Cylinder3D1_UMesh_PM3D_Cylinder3D1_0"
    },
    {
      "mesh": 2,
      "name": "UMesh_PM3D_Cylinder3D1_UMesh_PM3D_Cylinder3D1_0"
    },
    {
      "mesh": 3,
      "name": "UMesh_PM3D_Cylinder3D1_UMesh_PM3D_Cylinder3D1_0"
    }
  ],
  "scene": 0,
  "scenes": [
    {
      "name": "Sketchfab_Scene",
      "nodes": [
        0
      ]
    }
  ]
}
